<svg xmlns="http://www.w3.org/2000/svg" viewBox="0 0 1000 525" role="img" aria-label="Architecture cible Systalink et Vercel"><defs><marker id="arr" markerWidth="8" markerHeight="8" refX="7" refY="4" orient="auto"><path d="M0 0 L8 4 L0 8" fill="none" stroke="#087F73" stroke-width="1.5"/></marker></defs><rect width="1000" height="525" rx="18" fill="#F5F7F4"/><g font-family="Lato, sans-serif" fill="#102A2E"><rect x="305" y="20" width="390" height="63" rx="10" fill="#102A2E"/><text x="500" y="60" text-anchor="middle" fill="white" font-size="24" font-weight="bold">UTILISATEUR / NAVIGATEUR</text><path d="M385 83 V115 H195 V158" stroke="#087F73" fill="none" stroke-width="3" marker-end="url(#arr)"/><path d="M615 83 V115 H733 V158" stroke="#087F73" fill="none" stroke-width="3" marker-end="url(#arr)"/><text x="120" y="138" font-size="19">Chargement React</text><text x="730" y="138" font-size="19" text-anchor="middle">Appels API HTTPS</text><rect x="28" y="161" width="338" height="182" rx="14" fill="white" stroke="#BDD4C8" stroke-width="2"/><text x="55" y="202" font-size="26" font-weight="bold">VERCEL</text><text x="55" y="238" font-size="23">Interface React / Vite</text><text x="55" y="274" font-size="18">app.haas.example.com</text><text x="55" y="314" font-size="17" fill="#52666A">Navigation · formulaires · lecture</text><rect x="409" y="161" width="563" height="268" rx="14" fill="#E5F3EA" stroke="#087F73" stroke-width="2"/><text x="435" y="202" font-size="26" font-weight="bold">SYSTALINK / UN VPS</text><text x="435" y="238" font-size="22">Nginx + API Laravel</text><text x="435" y="269" font-size="18">api.haas.example.com</text><rect x="433" y="290" width="245" height="84" rx="8" fill="white"/><text x="451" y="325" font-size="20" font-weight="bold">PostgreSQL</text><text x="451" y="354" font-size="17">Données et jobs</text><rect x="695" y="290" width="251" height="84" rx="8" fill="white"/><text x="713" y="325" font-size="20" font-weight="bold">LAB local restreint</text><text x="713" y="354" font-size="17">1 run actif · base séparée</text><text x="435" y="407" font-size="17" fill="#425F63">Même machine ≠ isolation entre serveurs</text><path d="M550 429 V462 H314" stroke="#087F73" fill="none" stroke-width="3" marker-end="url(#arr)"/><rect x="28" y="438" width="285" height="60" rx="10" fill="#102A2E"/><text x="170" y="476" text-anchor="middle" font-size="20" fill="white">Sauvegarde distante chiffrée</text><text x="974" y="501" text-anchor="end" font-size="15" fill="#52666A">Schéma cible • hôtes d’exemple</text></g></svg>